<svg width="132" height="40" viewBox="0 0 132 40" fill="none" xmlns="http://www.w3.org/2000/svg">
<path d="M64.3941 9.54545H60.7208V20.5227H60.5674L53.0333 9.54545H49.7946V27H53.485V16.0142H53.6128L61.2066 27H64.3941V9.54545ZM73.3408 27.2557C76.5794 27.2557 78.7613 25.679 79.2726 23.25L75.9147 23.0284C75.5482 24.0256 74.6107 24.5455 73.4005 24.5455C71.5851 24.5455 70.4345 23.3438 70.4345 21.392V21.3835H79.3493V20.3864C79.3493 15.9375 76.6561 13.7386 73.1959 13.7386C69.3436 13.7386 66.8465 16.4744 66.8465 20.5142C66.8465 24.6648 69.3095 27.2557 73.3408 27.2557ZM70.4345 19.1335C70.5113 17.642 71.6448 16.4489 73.2556 16.4489C74.8323 16.4489 75.9232 17.5739 75.9317 19.1335H70.4345ZM93.5482 13.9091H89.7044L86.9942 23.2756H86.8578L84.1391 13.9091H80.3039L84.8806 27H88.9715L93.5482 13.9091ZM100.927 27.2557C104.165 27.2557 106.347 25.679 106.859 23.25L103.501 23.0284C103.134 24.0256 102.197 24.5455 100.986 24.5455C99.1711 24.5455 98.0205 23.3438 98.0205 21.392V21.3835H106.935V20.3864C106.935 15.9375 104.242 13.7386 100.782 13.7386C96.9296 13.7386 94.4324 16.4744 94.4324 20.5142C94.4324 24.6648 96.8955 27.2557 100.927 27.2557ZM98.0205 19.1335C98.0972 17.642 99.2307 16.4489 100.842 16.4489C102.418 16.4489 103.509 17.5739 103.518 19.1335H98.0205Z" fill="#272626"/>
<g clip-path="url(#clip0)">
<rect x="0.863525" y="0.797607" width="38.914" height="38.4059" fill="white"/>
<path fill-rule="evenodd" clip-rule="evenodd" d="M0.863525 0.795654H39.7775V39.2043H0.863525V0.795654ZM16.6417 20.009V29.1244H11.9819V10.5979C11.9819 10.5083 12.0091 10.4455 12.0636 10.4097C12.1181 10.3738 12.218 10.4186 12.3634 10.5441L23.9994 20.009V10.8399H28.6593V29.3933C28.6593 29.5008 28.6321 29.568 28.5776 29.5949C28.523 29.6218 28.4231 29.5725 28.2778 29.447L16.6417 20.009ZM28.6593 32.1291H11.9819V33.6452H28.6593V32.1291Z" fill="#0073AA"/>
</g>
<defs>
<clipPath id="clip0">
<rect x="0.863525" y="0.795654" width="38.914" height="38.4086" rx="2" fill="white"/>
</clipPath>
</defs>
</svg>
